<svg width="71" height="71" viewBox="0 0 71 71" fill="none" xmlns="http://www.w3.org/2000/svg">
<path d="M59.0187 62.125C52.6583 62.125 46.4587 60.7198 40.4197 57.9094C34.3788 55.099 29.0291 51.3517 24.3707 46.6677C19.7104 41.9837 15.9632 36.6212 13.1291 30.5803C10.293 24.5413 8.875 18.3417 8.875 11.9813V10.4281C8.875 9.88576 8.92431 9.36806 9.02292 8.875H26.3292L29.0656 23.7406L20.6344 32.2458C22.7052 35.7958 25.3066 39.124 28.4385 42.2302C31.5684 45.3365 35.0069 48.0236 38.7542 50.2917L47.3333 41.7125L62.125 44.6708V61.9771C61.6319 62.0264 61.1142 62.0639 60.5719 62.0895C60.0295 62.1132 59.5118 62.125 59.0187 62.125Z" fill="black"/>
</svg>
