<svg width="71" height="71" viewBox="0 0 71 71" fill="none" xmlns="http://www.w3.org/2000/svg">
<path d="M35.5 35.5C37.1271 35.5 38.5205 34.9201 39.6801 33.7605C40.8378 32.6028 41.4167 31.2104 41.4167 29.5833C41.4167 27.9562 40.8378 26.5628 39.6801 25.4032C38.5205 24.2455 37.1271 23.6666 35.5 23.6666C33.8729 23.6666 32.4805 24.2455 31.3228 25.4032C30.1632 26.5628 29.5833 27.9562 29.5833 29.5833C29.5833 31.2104 30.1632 32.6028 31.3228 33.7605C32.4805 34.9201 33.8729 35.5 35.5 35.5ZM35.5 57.2437C41.5153 51.7215 45.9774 46.7042 48.8865 42.1917C51.7955 37.6812 53.25 33.6757 53.25 30.175C53.25 24.8007 51.5361 20.3996 48.1084 16.9719C44.6827 13.5462 40.4799 11.8333 35.5 11.8333C30.5201 11.8333 26.3164 13.5462 22.8886 16.9719C19.4629 20.3996 17.75 24.8007 17.75 30.175C17.75 33.6757 19.2045 37.6812 22.1136 42.1917C25.0226 46.7042 29.4847 51.7215 35.5 57.2437ZM35.5 65.0833C27.5618 58.3284 21.6333 52.0538 17.7145 46.2594C13.7937 40.467 11.8333 35.1055 11.8333 30.175C11.8333 22.7791 14.2128 16.8871 18.9718 12.4989C23.7288 8.11072 29.2382 5.91663 35.5 5.91663C41.7618 5.91663 47.2712 8.11072 52.0282 12.4989C56.7872 16.8871 59.1667 22.7791 59.1667 30.175C59.1667 35.1055 57.2073 40.467 53.2885 46.2594C49.3677 52.0538 43.4382 58.3284 35.5 65.0833Z" fill="white"/>
</svg>
